<?xml version="1.0" standalone="no"?>
<!DOCTYPE svg PUBLIC "-//W3C//DTD SVG 20010904//EN"
 "http://www.w3.org/TR/2001/REC-SVG-20010904/DTD/svg10.dtd">
<svg version="1.0" xmlns="http://www.w3.org/2000/svg"
 width="814.000000pt" height="814.000000pt" viewBox="0 0 814.000000 814.000000"
 preserveAspectRatio="xMidYMid meet">
<metadata>
Created by potrace 1.14, written by Peter Selinger 2001-2017
</metadata>
<g transform="translate(0.000000,814.000000) scale(0.100000,-0.100000)"
fill="#000000" stroke="none">
<path d="M3797 7848 c-494 -491 -830 -988 -1100 -1629 -50 -117 -172 -465
-203 -576 -2 -7 -43 -24 -91 -38 -454 -134 -913 -346 -1303 -600 -314 -204
-552 -397 -828 -672 -179 -177 -202 -204 -193 -221 22 -41 403 -412 541 -528
309 -257 630 -469 975 -641 214 -108 575 -250 808 -319 49 -14 90 -31 91 -37
2 -7 34 -104 70 -217 256 -786 715 -1510 1316 -2078 l130 -124 133 127 c422
403 773 877 1030 1390 122 245 199 444 334 865 l18 55 120 36 c655 198 1226
506 1763 952 133 111 512 480 534 520 8 16 -20 48 -189 216 -272 271 -524 478
-799 657 -418 271 -870 481 -1336 619 -58 17 -89 31 -92 43 -230 804 -637
1517 -1211 2117 -89 94 -194 199 -233 233 l-71 63 -214 -213z m616 -451 c442
-544 739 -1101 928 -1747 23 -80 47 -150 53 -156 6 -6 79 -30 161 -54 614
-176 1224 -498 1715 -906 156 -129 341 -298 394 -360 l50 -57 -150 -146 c-432
-421 -947 -762 -1495 -991 -169 -71 -292 -114 -507 -180 l-184 -55 -47 -165
c-220 -764 -618 -1450 -1176 -2025 l-145 -150 -146 150 c-555 571 -973 1285
-1184 2025 -23 80 -47 150 -53 156 -7 6 -79 30 -160 54 -353 101 -697 246
-1019 431 -379 218 -696 458 -993 751 l-150 149 155 150 c562 547 1267 957
2007 1169 81 24 153 48 160 54 6 6 30 76 53 156 123 432 336 892 595 1291 165
253 357 490 590 727 l150 154 155 -159 c85 -87 195 -207 243 -266z"/>
<path d="M3950 7544 c-403 -428 -805 -1056 -1020 -1594 -57 -143 -158 -438
-180 -527 -9 -36 -15 -42 -43 -48 -17 -4 -115 -34 -217 -67 -505 -164 -1007
-424 -1457 -754 -160 -118 -423 -335 -483 -399 l-35 -37 65 -60 c376 -349 832
-662 1295 -888 88 -43 214 -100 280 -128 126 -52 444 -161 532 -181 51 -13 51
-13 63 -64 40 -172 180 -543 299 -791 215 -451 578 -989 885 -1314 l69 -73 55
53 c30 29 109 118 176 198 460 549 820 1214 1005 1855 l37 129 54 13 c96 24
391 124 530 180 546 220 1124 592 1585 1018 l60 55 -80 77 c-114 110 -352 299
-541 430 -315 219 -687 422 -1024 561 -134 55 -472 171 -547 187 -30 6 -34 11
-53 78 -137 483 -362 969 -657 1417 -147 223 -360 497 -520 669 l-68 74 -65
-69z m716 -2295 c8 -74 22 -165 30 -204 28 -133 38 -194 31 -201 -4 -4 -40 26
-81 66 -97 95 -154 134 -246 164 -196 65 -444 53 -612 -31 -73 -36 -210 -156
-202 -176 3 -7 35 -25 72 -42 112 -50 163 -108 182 -207 8 -43 6 -66 -17 -189
-5 -25 0 -28 124 -76 191 -75 290 -106 309 -99 16 6 17 28 11 288 -6 230 -9
284 -22 298 -32 36 -20 40 120 40 123 0 135 -2 135 -18 0 -10 -4 -22 -10 -28
-10 -10 -17 -540 -6 -551 18 -18 86 36 396 314 121 108 183 179 219 250 14 27
14 70 1 78 -20 12 -9 25 21 25 36 0 196 -41 282 -72 59 -21 77 -48 32 -48 -24
0 -65 -23 -173 -99 -77 -53 -362 -332 -362 -353 0 -11 31 -52 68 -92 163 -170
297 -399 370 -631 30 -98 66 -171 100 -208 21 -22 24 -30 13 -36 -22 -14 -278
-61 -286 -53 -3 3 -2 28 1 56 7 56 -13 176 -47 286 -39 125 -218 436 -296 512
l-42 41 -36 -22 c-38 -22 -135 -98 -147 -116 -4 -5 26 -41 66 -80 129 -124
203 -238 241 -369 25 -84 17 -227 -17 -322 -87 -241 -254 -402 -503 -484 -90
-30 -280 -33 -395 -8 -181 41 -301 83 -451 158 -150 76 -248 110 -315 110 -82
0 -89 10 -65 86 21 67 18 74 -45 74 -58 0 -140 16 -289 54 -71 19 -161 40
-199 47 -72 14 -88 29 -63 57 35 38 81 180 96 298 5 38 17 109 25 157 20 110
36 292 36 420 0 115 -24 359 -46 471 -9 43 -12 82 -7 86 15 13 247 31 458 35
l210 3 39 59 c54 80 177 197 250 238 123 68 330 114 456 100 30 -4 127 -25
215 -47 223 -55 252 -49 296 60 26 67 39 86 51 74 4 -4 15 -69 24 -143z m1410
-857 c48 -24 74 -53 105 -112 21 -40 24 -58 24 -160 0 -99 -3 -122 -23 -165
-44 -96 -114 -145 -204 -145 -102 1 -189 67 -224 171 -25 77 -23 196 6 274 26
68 90 138 142 154 46 14 129 6 174 -17z m569 1 c82 -42 120 -109 112 -194 -7
-78 -40 -145 -130 -266 l-77 -103 -81 0 c-44 0 -78 4 -75 9 3 5 35 44 71 87
36 43 65 81 65 84 0 3 -24 3 -54 2 -120 -8 -202 78 -194 203 8 134 104 209
253 202 45 -3 84 -11 110 -24z m-4627 -15 c27 -14 59 -42 77 -67 26 -37 30
-51 29 -104 -2 -89 -32 -156 -125 -279 l-81 -108 -79 0 c-44 0 -79 2 -79 4 0
2 32 41 70 87 39 45 70 86 70 89 0 4 -17 4 -37 1 -154 -28 -260 130 -190 282
27 59 65 92 130 113 60 20 157 12 215 -18z m-458 -273 l0 -285 -75 0 -75 0 0
219 0 220 -37 3 -38 3 -3 63 -3 62 116 0 115 0 0 -285z"/>
<path d="M2968 4728 l-58 -10 1 -52 c2 -165 25 -445 39 -461 13 -15 36 -17
265 -13 213 4 256 7 293 22 39 17 62 40 62 64 0 6 -23 32 -51 59 -60 57 -157
182 -182 236 -10 21 -22 60 -26 88 -5 28 -13 55 -20 62 -15 15 -248 19 -323 5z"/>
<path d="M3534 4666 c-9 -25 34 -94 83 -131 25 -19 51 -34 57 -32 6 2 12 20
14 39 2 29 -3 43 -29 73 -50 56 -113 82 -125 51z"/>
<path d="M3672 4178 c-22 -22 -13 -55 22 -82 44 -33 122 -116 150 -158 55 -82
75 -223 46 -313 -37 -114 -182 -245 -317 -285 -36 -11 -41 -16 -32 -31 24 -45
202 -147 354 -204 91 -33 243 -50 333 -36 156 24 264 81 353 184 66 75 83 110
106 212 14 59 14 80 4 145 -16 92 -36 131 -97 193 -88 88 -109 62 -99 -126 8
-155 21 -243 41 -275 8 -12 12 -27 9 -32 -8 -12 -322 -13 -329 -1 -3 4 3 19
14 31 38 44 45 94 45 338 0 270 3 261 -103 282 -94 19 -271 80 -364 126 -92
46 -116 52 -136 32z"/>
<path d="M3013 4012 c-46 -2 -75 -8 -83 -17 -12 -14 -26 -80 -75 -338 -20
-103 -24 -141 -15 -152 31 -38 374 -85 417 -57 7 4 19 26 26 47 8 22 20 41 28
42 8 2 26 -15 41 -37 15 -22 34 -40 43 -40 23 0 120 46 171 80 62 43 124 141
124 195 -1 73 -56 170 -122 211 -84 53 -289 78 -555 66z"/>
<path d="M5925 4266 c-60 -60 -60 -240 1 -307 10 -11 30 -19 50 -19 61 0 101
85 91 197 -12 130 -79 191 -142 129z"/>
<path d="M6483 4294 c-42 -21 -59 -62 -43 -108 14 -44 44 -66 86 -66 45 0 94
43 94 81 0 41 -23 83 -55 97 -33 15 -43 15 -82 -4z"/>
<path d="M1873 4292 c-12 -2 -34 -15 -48 -30 -23 -22 -26 -33 -22 -65 7 -52
41 -87 83 -87 92 0 135 81 79 148 -25 30 -52 40 -92 34z"/>
</g>
</svg>
